<?xml version="1.0" standalone="no"?>
<!DOCTYPE svg PUBLIC "-//W3C//DTD SVG 20010904//EN"
 "http://www.w3.org/TR/2001/REC-SVG-20010904/DTD/svg10.dtd">
<svg version="1.0" xmlns="http://www.w3.org/2000/svg"
 width="400.000000pt" height="200.000000pt" viewBox="0 0 400.000000 200.000000"
 preserveAspectRatio="xMidYMid meet">

<g transform="translate(0.000000,200.000000) scale(0.100000,-0.100000)"
fill="#000000" stroke="none">
<path d="M684 1937 c-18 -16 -27 -34 -28 -57 -1 -32 -4 -35 -44 -42 -58 -10
-156 -64 -214 -118 -60 -56 -113 -144 -140 -233 -29 -96 -22 -242 16 -341 14
-38 23 -73 18 -78 -16 -16 -127 -48 -167 -48 -46 0 -61 11 -67 50 l-5 25 -10
-25 c-8 -19 -8 -30 2 -45 17 -28 126 -32 215 -8 l64 18 66 -65 c36 -36 88 -76
117 -90 49 -23 54 -28 83 -100 77 -184 113 -259 121 -254 5 3 9 -1 10 -8 0 -7
4 -3 9 10 5 12 15 83 21 157 11 122 14 134 33 139 57 15 57 15 4 -145 -27 -83
-47 -153 -44 -156 6 -6 76 141 122 255 28 71 31 75 88 104 92 46 169 130 222
240 24 51 67 120 94 153 28 32 50 63 50 68 0 9 -7 5 -69 -41 l-31 -23 0 28 c0
25 10 36 75 78 64 42 77 56 86 88 14 54 8 87 -20 106 l-25 16 18 -28 c16 -23
17 -31 6 -57 -12 -29 -113 -130 -130 -130 -5 0 -12 21 -16 48 -3 26 -17 76
-31 111 -18 49 -21 66 -11 72 26 16 153 39 217 39 122 0 142 -44 66 -145 -25
-33 -45 -62 -45 -65 0 -11 143 137 156 162 8 15 14 38 14 52 0 56 -122 58
-325 6 l-110 -28 -51 52 c-81 84 -203 156 -264 156 -15 0 -20 7 -20 29 0 43
-9 60 -41 76 -38 20 -53 19 -85 -8z m107 -206 c45 -37 87 -115 109 -203 l18
-68 -31 -24 c-57 -43 -146 -96 -159 -96 -7 1 -53 29 -103 64 -100 70 -99 68
-64 161 47 124 109 195 169 195 14 0 41 -13 61 -29z m-221 15 c0 -3 -13 -26
-29 -53 -17 -26 -40 -78 -51 -115 -12 -38 -24 -68 -27 -68 -14 0 -93 56 -93
66 0 20 81 104 134 140 47 32 66 40 66 30z m388 -37 c53 -35 100 -83 126 -126
5 -8 -10 -23 -40 -43 -27 -16 -51 -30 -55 -30 -4 0 -10 15 -13 33 -3 18 -26
72 -50 120 -24 48 -40 87 -36 87 4 0 35 -18 68 -41z m181 -251 c18 -74 14
-187 -9 -262 -11 -36 -24 -67 -28 -70 -5 -3 -34 7 -66 21 -49 23 -56 30 -51
47 3 12 9 73 12 137 l6 115 56 37 c31 20 59 33 62 29 3 -4 11 -28 18 -54z
m-749 27 c22 -14 40 -27 40 -30 0 -6 -68 -40 -99 -50 -22 -7 -23 -5 -16 27 10
43 23 78 30 78 3 0 23 -11 45 -25z m60 -214 l0 -117 -44 -22 -45 -21 -21 55
c-11 31 -23 82 -27 114 l-6 59 64 29 c35 16 67 27 72 25 4 -2 7 -57 7 -122z
m161 78 l70 -51 -56 -35 -56 -35 -25 23 c-20 19 -24 32 -24 86 0 36 4 63 10
63 6 0 42 -23 81 -51z m319 17 c0 -52 -13 -146 -21 -146 -16 0 -129 73 -124
80 7 12 126 90 136 90 5 0 9 -11 9 -24z m-127 -148 c36 -24 73 -48 83 -54 17
-10 17 -13 -5 -70 -25 -69 -84 -152 -124 -174 -24 -13 -30 -13 -54 0 -62 35
-164 222 -131 241 7 5 42 28 78 53 36 25 70 45 76 45 6 1 41 -18 77 -41z
m-268 -18 c0 -18 -6 -26 -23 -28 -24 -4 -38 18 -28 44 3 9 15 14 28 12 17 -2
23 -10 23 -28z m-35 -105 c0 -7 17 -47 38 -89 21 -42 35 -76 30 -76 -22 0
-153 101 -162 126 -3 8 11 23 36 38 42 25 58 26 58 1z m520 -5 c22 -11 40 -24
40 -29 0 -18 -156 -138 -166 -128 -3 2 11 37 31 78 19 40 35 79 35 86 0 18 14
16 60 -7z m-324 -273 c1 -1 4 -63 8 -137 l6 -135 -28 90 c-16 50 -36 114 -45
144 l-17 53 38 -7 c20 -4 38 -8 38 -8z"/>
<path d="M2447 975 c-45 -16 -83 -48 -105 -90 -18 -36 -64 -387 -56 -433 13
-69 102 -122 183 -107 55 10 114 49 138 92 12 22 26 74 32 122 19 142 24 131
-73 131 -92 0 -96 -3 -96 -72 0 -23 4 -28 26 -28 24 0 25 -1 18 -47 -3 -27
-11 -56 -16 -65 -11 -23 -54 -34 -73 -18 -19 16 -19 52 4 235 17 129 22 152
41 167 28 22 44 23 65 2 11 -11 15 -29 13 -53 l-3 -36 60 0 60 0 0 67 c0 60
-3 70 -29 97 -47 49 -117 62 -189 36z"/>
<path d="M1110 975 c0 -2 -16 -133 -35 -289 -19 -157 -35 -297 -35 -311 0 -24
3 -25 55 -25 36 0 57 5 60 13 6 15 75 567 75 596 0 19 -6 21 -60 21 -33 0 -60
-2 -60 -5z"/>
<path d="M1355 968 c-2 -7 -17 -130 -35 -273 -17 -143 -33 -279 -36 -302 l-6
-43 60 0 c72 0 62 -26 94 240 l22 184 18 -39 c9 -22 22 -52 27 -67 6 -16 14
-28 18 -28 4 0 26 28 48 62 22 34 41 56 42 48 2 -8 -8 -100 -20 -203 -18 -144
-21 -190 -11 -194 6 -2 33 -3 60 -1 l49 3 31 250 c18 138 35 278 39 313 l7 62
-60 0 -59 0 -51 -77 -51 -77 -24 56 c-14 31 -28 65 -32 77 -5 18 -14 21 -66
21 -39 0 -61 -4 -64 -12z"/>
<path d="M1985 968 c-8 -22 -205 -612 -205 -615 0 -2 27 -3 60 -3 l59 0 14 48
14 47 62 3 61 3 0 -51 0 -50 65 0 65 0 -6 58 c-3 31 -16 172 -27 312 l-22 255
-68 3 c-48 2 -69 -1 -72 -10z m55 -310 l0 -108 -41 0 c-35 0 -41 3 -37 18 49
175 64 219 70 209 4 -7 8 -60 8 -119z"/>
<path d="M2805 968 c-2 -7 -18 -132 -35 -278 -17 -146 -34 -282 -37 -302 l-6
-38 62 0 c55 0 61 2 65 23 3 12 19 139 36 282 17 143 34 275 37 293 l5 32 -61
0 c-41 0 -63 -4 -66 -12z"/>
<path d="M3055 968 c-5 -14 -75 -577 -75 -603 0 -12 13 -15 60 -15 33 0 60 4
60 8 0 5 9 80 20 168 11 87 20 166 21 174 1 18 30 -115 54 -252 l17 -98 69 0
c40 0 69 4 69 10 0 6 16 137 35 291 19 155 35 292 35 305 0 23 -4 24 -58 24
l-59 0 -17 -147 c-10 -82 -20 -164 -24 -183 l-6 -35 -7 35 c-4 19 -19 101 -34
183 l-28 147 -64 0 c-42 0 -65 -4 -68 -12z"/>
<path d="M3549 973 c0 -5 -17 -144 -38 -311 -20 -166 -35 -305 -32 -307 2 -3
73 -5 157 -5 169 0 164 -2 164 71 l0 39 -96 0 -95 0 6 58 c11 94 10 92 70 92
30 0 56 3 58 8 3 4 8 28 11 55 l7 47 -61 0 -62 0 6 28 c2 15 8 48 11 75 l6 47
94 0 c52 0 96 3 98 8 3 4 8 28 11 55 l7 47 -160 0 c-89 0 -161 -3 -162 -7z"/>
<path d="M200 940 c-43 -43 -11 -120 50 -120 59 0 90 67 54 118 -20 29 -76 30
-104 2z m68 -22 c17 -17 15 -55 -3 -62 -35 -13 -63 21 -45 55 12 22 30 25 48
7z"/>
<path d="M602 587 c-29 -30 -28 -51 3 -71 31 -21 99 -22 92 -2 -11 28 -57 96
-65 96 -5 0 -18 -10 -30 -23z"/>
<path d="M791 562 c-17 -27 -31 -52 -31 -55 0 -4 20 -7 43 -7 69 0 102 54 57
93 -29 25 -35 22 -69 -31z"/>
<path d="M636 483 c-16 -4 -18 -12 -13 -59 3 -29 8 -58 12 -64 3 -6 45 -10 95
-10 104 0 110 5 110 89 l0 51 -92 -1 c-51 -1 -101 -3 -112 -6z"/>
<path d="M2765 286 c-89 -40 -136 -176 -80 -231 19 -20 34 -25 74 -25 42 0 56
5 86 31 19 17 35 35 35 39 0 15 -35 21 -45 7 -26 -36 -84 -48 -105 -22 -28 34
-3 132 39 155 30 15 79 12 89 -6 10 -18 52 -11 52 9 -1 48 -80 72 -145 43z"/>
<path d="M2951 253 c-29 -110 -51 -203 -51 -212 0 -6 11 -11 24 -11 22 0 26 7
37 55 11 50 15 55 40 55 31 0 39 -15 39 -71 0 -37 2 -39 30 -39 l29 0 -6 53
c-3 28 -9 56 -14 61 -5 6 4 20 21 35 37 33 47 72 25 95 -12 12 -35 16 -90 16
l-74 0 -10 -37z m129 -28 c0 -27 -25 -45 -64 -45 -27 0 -30 8 -20 48 5 18 13
22 45 22 35 0 39 -3 39 -25z"/>
<path d="M3183 165 c-40 -68 -73 -127 -73 -130 0 -3 11 -5 25 -5 17 0 29 9 40
30 14 27 20 30 66 30 47 0 50 -1 56 -30 4 -24 11 -30 31 -30 27 0 27 -5 5 203
l-6 57 -36 0 c-36 0 -37 -2 -108 -125z m106 3 c1 -25 -2 -28 -34 -28 l-35 0
28 49 c24 45 28 48 34 28 3 -12 6 -34 7 -49z"/>
<path d="M3416 173 c-16 -65 -31 -124 -34 -131 -2 -8 5 -12 22 -12 28 0 29 1
46 68 l11 42 54 0 c48 0 55 2 55 20 0 17 -7 20 -50 20 -50 0 -50 0 -44 28 4
15 9 30 13 34 6 6 77 11 157 9 l42 -1 -28 -110 -28 -110 27 0 c26 0 28 4 45
76 36 151 32 144 76 144 33 0 40 3 40 20 0 19 -7 20 -99 20 -70 0 -101 -4
-104 -12 -4 -10 -6 -10 -6 0 -1 8 -25 12 -84 12 l-83 0 -28 -117z"/>
</g>
</svg>
