<?xml version="1.0" standalone="no"?>
<!DOCTYPE svg PUBLIC "-//W3C//DTD SVG 20010904//EN"
 "http://www.w3.org/TR/2001/REC-SVG-20010904/DTD/svg10.dtd">
<svg version="1.0" xmlns="http://www.w3.org/2000/svg"
 width="500.000000pt" height="500.000000pt" viewBox="0 0 500.000000 500.000000"
 preserveAspectRatio="xMidYMid meet">

<g transform="translate(0.000000,500.000000) scale(0.100000,-0.100000)"
fill="#000000" stroke="none">
<path d="M2345 4881 c-130 -34 -217 -176 -175 -287 6 -15 7 -31 3 -35 -5 -5
-44 -13 -86 -19 -215 -30 -509 -181 -701 -361 -215 -200 -408 -559 -461 -854
-9 -49 -19 -151 -22 -225 -11 -263 36 -501 153 -775 24 -57 44 -107 44 -110 0
-11 -102 -51 -262 -104 -151 -49 -160 -51 -271 -51 -102 0 -118 2 -147 23 -52
35 -72 81 -66 152 4 58 4 59 -13 38 -28 -33 -54 -129 -47 -168 4 -19 20 -47
36 -64 45 -44 107 -55 284 -48 164 7 247 22 434 81 63 20 120 33 127 29 7 -5
32 -33 55 -63 62 -80 214 -226 308 -295 44 -33 138 -89 208 -125 l127 -65 158
-375 c157 -373 285 -648 295 -637 14 14 -62 292 -188 685 -44 139 -78 255 -75
259 5 4 170 -21 214 -33 15 -4 21 -74 33 -379 12 -292 27 -484 41 -540 10 -36
12 -38 24 -22 27 37 62 295 90 662 8 110 15 211 15 225 0 42 15 52 101 71 115
25 132 25 124 -3 -4 -13 -56 -174 -117 -358 -102 -312 -178 -559 -178 -581 0
-24 19 -3 52 58 70 130 269 570 378 836 l52 127 127 67 c185 97 262 153 401
293 173 173 267 318 346 538 44 121 53 136 114 202 101 109 310 385 310 410 0
25 -78 -26 -224 -149 -60 -50 -110 -90 -112 -89 -1 2 2 26 6 53 5 28 9 68 9
91 1 40 2 41 124 130 67 50 151 108 187 129 142 84 135 76 158 156 48 162 52
234 19 299 -24 49 -61 75 -122 85 l-40 7 42 -31 c131 -96 85 -242 -135 -433
-116 -102 -211 -178 -222 -178 -4 0 -13 37 -19 83 -29 203 -69 348 -141 509
-22 48 -40 94 -40 102 0 17 54 34 260 82 213 49 311 64 424 64 249 0 351 -52
351 -178 -1 -76 -39 -144 -184 -325 -61 -77 -111 -141 -111 -143 0 -12 45 23
145 113 218 197 359 369 391 479 15 51 14 57 -3 92 -12 24 -34 46 -63 62 -44
25 -48 25 -260 24 -193 -1 -228 -4 -345 -28 -153 -32 -409 -95 -551 -137 -56
-16 -104 -29 -107 -29 -3 0 -31 33 -63 73 -124 154 -246 266 -395 364 -146 95
-363 186 -475 199 -67 8 -74 19 -74 113 0 83 -11 115 -53 159 -59 62 -150 92
-222 73z m130 -609 c33 -16 86 -53 118 -81 94 -87 216 -289 265 -441 34 -105
93 -352 88 -366 -7 -19 -96 -82 -334 -237 -201 -131 -217 -140 -243 -130 -16
6 -151 96 -300 199 l-271 188 5 45 c9 78 94 319 157 447 98 200 207 328 330
383 62 28 114 26 185 -7z m467 -48 c72 -36 212 -133 284 -196 97 -85 234 -260
234 -300 0 -23 -292 -212 -301 -195 -4 6 -17 50 -29 97 -44 165 -140 383 -236
537 -30 47 -54 89 -54 94 0 10 30 -1 102 -37z m-1032 29 c0 -5 -19 -35 -41
-68 -93 -139 -180 -340 -244 -566 -29 -103 -27 -103 -151 -25 -60 38 -126 82
-147 98 l-37 30 22 36 c82 137 221 287 342 371 131 91 257 151 256 124z m1666
-718 c43 -103 65 -238 71 -425 7 -240 -6 -387 -48 -515 -35 -110 -74 -198 -95
-216 -16 -13 -26 -9 -226 79 -147 64 -139 50 -112 192 12 61 19 169 23 380 l6
294 57 46 c49 39 294 200 305 200 2 0 11 -16 19 -35z m-2215 -72 c76 -48 138
-91 136 -96 -2 -7 -361 -177 -374 -177 -9 0 7 97 33 196 25 100 49 164 59 164
3 0 69 -39 146 -87z m515 -305 c144 -99 354 -257 354 -265 0 -5 -31 -25 -68
-46 -37 -21 -109 -65 -160 -98 l-93 -60 -42 38 c-23 21 -52 46 -65 55 -34 23
-41 71 -42 266 0 137 3 172 13 172 8 0 54 -28 103 -62z m-352 33 c3 -5 10
-148 16 -317 6 -170 13 -328 16 -350 l6 -42 -112 -61 c-61 -34 -122 -68 -135
-77 -22 -14 -25 -14 -39 8 -78 120 -191 580 -159 650 7 17 58 45 199 110 104
48 192 87 196 87 4 1 9 -3 12 -8z m1453 -185 c-6 -201 -26 -369 -42 -362 -32
12 -395 239 -395 246 0 23 415 304 433 293 6 -4 8 -67 4 -177z m-483 -280 c50
-35 150 -98 221 -141 166 -99 185 -113 185 -133 0 -24 -75 -224 -116 -309
-105 -219 -289 -412 -394 -413 -44 0 -126 46 -187 106 -111 110 -196 253 -273
459 -53 142 -56 156 -28 182 38 34 470 313 486 313 8 0 55 -29 106 -64z m-699
-50 c52 -52 38 -131 -29 -162 -89 -43 -167 47 -120 137 27 53 107 67 149 25z
m-85 -428 c38 -122 96 -248 174 -378 31 -52 52 -96 47 -98 -13 -4 -111 47
-193 100 -115 74 -348 292 -348 325 0 11 21 24 150 95 58 32 113 58 122 58 12
0 25 -26 48 -102z m1529 39 c65 -30 129 -61 142 -71 l24 -17 -137 -134 c-76
-73 -168 -154 -205 -178 -61 -40 -204 -117 -218 -117 -3 0 13 33 35 73 74 132
146 289 204 450 10 26 22 47 27 47 6 0 63 -24 128 -53z"/>
<path d="M869 1876 c-94 -33 -143 -106 -143 -211 0 -50 6 -71 28 -109 34 -59
104 -106 157 -106 125 0 207 52 235 148 53 183 -104 340 -277 278z m133 -123
c39 -41 51 -79 38 -119 -15 -44 -63 -84 -102 -84 -43 0 -108 66 -108 109 0
101 109 160 172 94z"/>
<path d="M2679 813 c-32 -27 -123 -158 -178 -254 l-31 -56 46 -7 c26 -3 87 -6
136 -6 l89 0 42 46 c52 57 66 82 67 116 0 44 -16 74 -54 97 -19 12 -41 35 -48
51 -18 41 -32 43 -69 13z"/>
<path d="M2052 818 c-7 -7 -12 -20 -12 -30 0 -11 -15 -28 -34 -39 -35 -20 -61
-64 -72 -117 -5 -26 -1 -33 33 -58 21 -15 49 -38 63 -51 17 -15 44 -24 82 -29
67 -8 188 3 188 18 0 13 -102 188 -153 261 -41 58 -69 71 -95 45z"/>
<path d="M2135 443 c-84 -6 -87 -11 -80 -107 16 -205 32 -277 64 -293 9 -4
124 -9 256 -10 272 -4 276 -3 312 67 18 37 24 71 32 190 5 80 7 148 4 153 -4
7 -469 7 -588 0z"/>
</g>
</svg>
